<svg xmlns="http://www.w3.org/2000/svg" viewBox="0 0 20 20" width="20" height="20"><path d="M10 0C4.477 0 0 4.477 0 10s4.477 10 10 10 10-4.477 10-10S15.523 0 10 0Zm0 18.125c-4.48 0-8.125-3.645-8.125-8.125S5.52 1.875 10 1.875 18.125 5.52 18.125 10 14.48 18.125 10 18.125Zm0-5c-.703 0-1.25.547-1.25 1.25s.512 1.25 1.25 1.25c.668 0 1.25-.547 1.25-1.25s-.582-1.25-1.25-1.25ZM11.293 5H9.297a2.718 2.718 0 0 0-2.735 2.734c0 .508.43.938.938.938a.95.95 0 0 0 .938-.938c0-.468.355-.859.824-.859h1.996c.504 0 .93.39.93.86 0 .312-.157.55-.43.706L9.53 9.805a.963.963 0 0 0-.469.82v.625c0 .508.43.938.938.938a.95.95 0 0 0 .938-.938v-.078l1.761-1.094c.82-.508 1.328-1.406 1.328-2.344C14.063 6.211 12.852 5 11.293 5Zm0 0" fill="#4682b4"/></svg>